<?xml version="1.0" encoding="UTF-8" standalone="no"?>
<!-- Created with Inkscape (http://www.inkscape.org/) -->
<svg
   xmlns:dc="http://purl.org/dc/elements/1.1/"
   xmlns:cc="http://web.resource.org/cc/"
   xmlns:rdf="http://www.w3.org/1999/02/22-rdf-syntax-ns#"
   xmlns:svg="http://www.w3.org/2000/svg"
   xmlns="http://www.w3.org/2000/svg"
   xmlns:sodipodi="http://inkscape.sourceforge.net/DTD/sodipodi-0.dtd"
   xmlns:inkscape="http://www.inkscape.org/namespaces/inkscape"
   id="svg2"
   sodipodi:version="0.32"
   inkscape:version="0.43"
   width="500"
   height="500"
   version="1.0"
   sodipodi:docbase="/home/oliw/Documents/wikipedia/gfx/commons/bearb"
   sodipodi:docname="Eat_the_rich_symbol.svg">
  <metadata
     id="metadata7">
    <rdf:RDF>
      <cc:Work
         rdf:about="">
        <dc:format>image/svg+xml</dc:format>
        <dc:type
           rdf:resource="http://purl.org/dc/dcmitype/StillImage" />
      </cc:Work>
    </rdf:RDF>
  </metadata>
  <defs
     id="defs5" />
  <sodipodi:namedview
     inkscape:window-height="689"
     inkscape:window-width="1012"
     inkscape:pageshadow="2"
     inkscape:pageopacity="1"
     guidetolerance="10.0"
     gridtolerance="10.0"
     objecttolerance="10.0"
     borderopacity="1.0"
     bordercolor="#666666"
     pagecolor="#ffffff"
     id="base"
     inkscape:zoom="0.814"
     inkscape:cx="510.37176"
     inkscape:cy="248.62632"
     inkscape:window-x="0"
     inkscape:window-y="25"
     inkscape:current-layer="svg2" />
  <path
     style="fill:#000000"
     d="M 0,250 L 0,-1.9e-06 L 250,-1.9e-06 L 500,-1.9e-06 L 500,250 L 500,500 L 250,500 L 0,500 L 0,250 z "
     id="path2211" />
  <g
     id="g2241">
    <path
       id="path2209"
       d="M 254.59375 74.15625 C 253.45504 74.172452 252.31121 74.204437 251.15625 74.25 C 235.3878 74.872055 224.98291 77.406721 211.375 84 C 187.29654 95.666441 167.83962 117.52003 159.3125 142.5 C 154.04622 157.92742 152.60279 177.22812 155.59375 191.78125 C 157.20217 199.60735 162.57945 214 163.90625 214 C 164.30591 214 165.19303 209.1625 165.875 203.25 C 167.42553 189.80722 171.36972 169.29583 174.65625 157.5 C 179.3889 140.51379 188.98622 124 194.125 124 C 197.08053 124 196.46625 127.03885 191 139.59375 C 185.03583 153.29226 177.75345 174.58271 175.46875 185 C 174.56407 189.125 173.57362 199.33946 173.28125 207.6875 L 172.75 222.84375 L 169.75 224.09375 C 163.16617 226.82086 158 233.15926 158 238.5 C 158 246.57135 168.86645 255.95743 189.09375 265.34375 C 200.67487 270.71788 205.10686 274.39354 208.46875 281.5 C 212.70433 290.45327 210.17516 290 254.0625 290 C 292.55874 290 292.70759 289.98084 296.09375 287.71875 C 297.96259 286.47028 300.27937 283.88278 301.21875 281.96875 C 304.45421 275.37634 309.49306 271.47583 324.21875 264.1875 C 332.07039 260.30142 340.59867 255.40992 343.15625 253.3125 C 348.89228 248.60847 353 242.52689 353 238.75 C 353 233.20568 347.72893 226.60249 341.28125 224.0625 C 337.21439 222.4604 336.70449 220.10763 337.15625 204.65625 C 337.45752 194.35241 337.73061 192.79829 339.65625 190.875 C 340.96288 189.56998 342.48882 188.96772 343.46875 189.34375 C 344.89505 189.89108 345.00911 191.3851 344.40625 201.46875 C 343.9021 209.90131 344.04328 213.32879 344.9375 214.40625 C 347.6868 217.71895 351.06382 213.05448 354.875 200.6875 C 363.18037 173.73718 356.79457 139.09654 339.25 116 C 317.42415 87.267388 289.89365 73.654001 254.59375 74.15625 z M 420.5 239.375 C 419.95 239.22071 401.275 251.13751 379 265.84375 L 338.5 292.59375 L 337.875 299.625 C 337.15515 307.63164 334.64524 313.98807 329.40625 321.125 C 322.94373 329.92871 307.86343 338.97463 296 341.15625 C 292.975 341.71254 285.1 344.41874 278.5 347.1875 C 271.9 349.95628 265.38626 352.63804 264.03125 353.15625 C 261.79675 354.01082 263.05256 354.90031 277.53125 362.5 C 286.31125 367.10853 294.23667 370.90209 295.125 370.9375 C 296.01333 370.97292 297.88563 370.0978 299.28125 369 C 300.67687 367.90222 302.94094 365.08971 304.3125 362.75 C 309.70242 353.55548 324.00923 342.29724 336.8125 337.1875 C 343.03812 334.70289 344.61212 334.52423 359.15625 334.46875 L 374.78125 334.40625 L 410.90625 306.46875 C 430.76444 291.1047 447 278.28613 447 277.96875 C 447 277.65137 446.3948 276.54127 445.65625 275.53125 C 444.36544 273.76596 444.10404 273.80927 438.90625 276.21875 C 432.32399 279.27003 416.88494 289.42266 395.6875 304.65625 C 382.97664 313.79094 379.52738 315.83671 378.40625 314.90625 C 375.92971 312.8509 376.86989 311.60506 385.1875 306 C 398.07295 297.31678 423.89613 277.78408 430.75 271.53125 C 434.47816 268.13004 437 265.01928 437 263.8125 C 437 261.33885 436.09038 261.62725 426.4375 267.125 C 420.44893 270.53577 408.34615 278.98219 377.28125 301.46875 C 372.0016 305.29048 371.75247 305.37232 370.40625 303.53125 C 369.63659 302.47867 369.03474 301.36988 369.0625 301.0625 C 369.09026 300.75512 375.44671 296 383.21875 290.5 C 397.17269 280.62528 417.25091 264.99624 426 257.1875 C 429.46738 254.09278 430.24575 252.8983 429.34375 251.96875 C 428.43478 251.03202 426.75838 251.61497 421.84375 254.5625 C 410.98777 261.07335 392.90362 273.52131 378.46875 284.4375 C 365.21881 294.4576 364.57464 294.82869 363.25 292.9375 C 362.48783 291.84935 362.00889 290.54663 362.1875 290.0625 C 362.3661 289.57838 370.375 283.69719 380 276.96875 C 408.54403 257.01479 422.55448 245.10378 421.84375 241.4375 C 421.65418 240.45958 421.05 239.52929 420.5 239.375 z M 78.25 244.46875 C 75.290846 244.57493 72.622875 246.41199 70.1875 250 C 67.066649 254.59792 67.623782 260.14483 71.78125 266.1875 C 77.653769 274.72291 111.81872 306.48835 132.5 322.65625 C 159.78129 343.98379 188.63924 361.23484 199.15625 362.46875 C 204.0489 363.04279 208.00643 364.97387 228.15625 376.6875 C 274.57433 403.67157 281.65261 407.57088 291 411.40625 C 313.45682 420.62062 322.44576 425.98297 345 443.59375 C 356.825 452.82693 368.975 461.64995 372 463.1875 C 378.81971 466.65381 387.11487 467.01444 392.78125 464.09375 C 397.39629 461.71498 402.26473 456.54647 403.96875 452.21875 C 405.687 447.85487 408.07693 446.70143 416.9375 445.9375 C 423.56688 445.36593 424.64662 444.95756 427.09375 442.21875 C 428.81405 440.29341 430.25648 437.05024 431 433.46875 C 434.11413 418.46803 424.59951 410.0218 404.5625 410 C 383.47111 409.97706 356.57186 406.82184 345.875 403.125 C 335.3646 399.4926 310.3142 387.5816 296.625 379.71875 C 277.97715 369.00772 254.41804 357.66662 232.09375 348.65625 C 215.86319 342.1054 213.4712 340.84913 212.0625 338.125 C 210.89531 335.86788 206.44321 332.60479 195.5 325.96875 C 160.40093 304.68447 117.39941 274.28935 94.53125 254.59375 C 89.054196 249.87653 83.107322 245.52985 81.3125 244.9375 C 80.259339 244.58993 79.236385 244.43336 78.25 244.46875 z M 236 293 C 231.54938 293 231 293.93663 231 301.53125 C 231 305.58916 231.42722 307.13581 232.75 307.90625 C 235.00861 309.22178 236.66628 309.25116 239.0625 307.96875 C 240.6071 307.14212 241 305.82984 241 301.53125 C 241 293.92117 240.45211 293 236 293 z M 246.96875 293 C 243.71799 293.08115 243.73227 293.97459 242.53125 303.125 C 242.06766 306.65698 242.30017 308.14392 243.53125 309.375 C 245.35415 311.1979 245.55377 311.23925 249.875 310.375 L 253 309.75 L 253 301.375 L 253 293 L 248.59375 293 C 247.9838 293 247.43314 292.98841 246.96875 293 z M 256 293 L 256 301.4375 C 256 309.38511 256.12886 309.8727 258.25 310.28125 C 261.98358 311.00036 262.75683 311.0392 264.40625 310.40625 C 265.61335 309.94304 266.01042 308.34413 266 303.65625 C 265.97825 293.87625 265.50191 293 260.375 293 L 256 293 z M 273 293 C 268.56005 293 268 293.94019 268 301.53125 C 268 305.58916 268.42722 307.13581 269.75 307.90625 C 272.54779 309.53583 275.84837 309.15594 276.96875 307.0625 C 278.10684 304.93598 278.31945 298.77419 277.375 295.25 C 276.88466 293.42032 276.07092 293 273 293 z M 285.09375 293.0625 C 283.74007 293.16964 282.44228 293.68272 281.5625 294.5625 C 279.61297 296.51201 279.54594 305.02028 281.4375 310 C 282.16871 311.925 283.83817 316.58209 285.125 320.34375 L 287.4375 327.1875 L 288.8125 322.34375 C 289.56645 319.68209 290.2593 312.42376 290.34375 306.21875 C 290.46704 297.16064 290.20434 294.73379 289 293.96875 C 287.86595 293.24835 286.44743 292.95536 285.09375 293.0625 z M 224.15625 293.21875 C 222.88965 293.17664 221.33802 293.42476 220.28125 293.90625 L 217.71875 295.09375 L 218.28125 306.78125 C 218.59023 313.22157 219.39766 320.3 220.0625 322.5 L 221.28125 326.5 L 223 321.4375 C 223.95512 318.6593 225.39959 315.0593 226.21875 313.4375 C 228.22974 309.45604 229.15472 302.87613 228.375 298 C 227.86978 294.84054 227.20497 293.85783 225.28125 293.375 C 224.94523 293.29067 224.57845 293.23279 224.15625 293.21875 z M 215.5625 376 C 214.86118 376 206.20703 379.77513 196.34375 384.40625 C 165.19074 399.03356 157.75808 400.61095 125 399.4375 C 93.767897 398.3187 89.054256 398.48963 83.21875 401 C 74.656973 404.68319 70.134777 411.82708 71.5625 419.4375 C 72.571678 424.81687 75.562292 427.8301 83.40625 431.40625 C 90.900053 434.82278 97 440.53581 97 444.09375 C 97 449.2606 102.22914 454.80828 109.03125 456.875 C 115.04616 458.70254 126.8329 457.69048 133.1875 454.78125 C 136.29255 453.35971 141.44295 450.25697 144.625 447.90625 C 165.04906 432.81811 173.23868 428.40862 214 410.46875 C 232.425 402.35954 247.60783 395.64132 247.75 395.53125 C 248.28521 395.11691 216.78147 376 215.5625 376 z "
       style="fill:#ffffff" />
    <path
       id="path2169"
       d="M 199.96875 184 C 198.92527 184 194.26524 195.21465 192.53125 201.90625 C 189.73134 212.71147 190.93827 219.6602 196.125 222.6875 C 200.0709 224.99058 211.00469 223.71298 222.40625 219.625 C 227.86291 217.66854 232.72822 215.64679 233.21875 215.15625 C 234.03358 214.34142 201.65365 184 199.96875 184 z M 308.125 184.5 C 307.54315 184.5 299.61097 191.24249 290.5 199.46875 L 273.9375 214.40625 L 277.21875 216.15625 C 280.32596 217.81155 293.17413 222.34487 297.5 223.3125 C 301.23563 224.1481 308.84785 223.99209 311.375 223.03125 C 316.73924 220.99177 318.35359 212.6432 315.5 201.6875 C 313.49281 193.9814 309.42832 184.5 308.125 184.5 z M 251.9375 222 C 249.59426 222 239 249.5581 239 255.65625 C 239 257.1154 250.22197 253.23867 251.75 251.25 C 253.3657 249.14724 253.53989 222 251.9375 222 z M 256.4375 222.6875 C 256.23735 222.71919 256.0856 222.85942 255.9375 223.09375 C 254.94901 224.65774 255.45991 250.80365 256.5 251.84375 C 256.85784 252.2016 259.69121 253.42342 262.8125 254.5625 C 265.93379 255.70159 268.66264 256.49892 268.875 256.34375 C 269.72621 255.72183 266.63194 243.05156 263.90625 236 C 260.48611 227.15178 257.83857 222.4657 256.4375 222.6875 z M 80.84375 250.9375 C 77.304457 250.82581 72.99424 254.46835 73.03125 258.875 C 73.082131 264.93363 76.520419 269.44156 89.4375 280.375 C 96.412673 286.27901 104.19658 292.44316 106.75 294.0625 C 109.30343 295.68184 111.63268 296.98062 111.9375 296.96875 C 112.52041 296.94606 107.7259 292.43381 93.96875 280.03125 C 85.181808 272.10951 80 265.13413 80 261.25 C 80 259.95768 81.130789 257.77547 82.53125 256.375 C 84.546901 254.35935 84.862678 253.52102 83.9375 252.40625 C 83.11693 251.41753 82.023514 250.97473 80.84375 250.9375 z M 103.9375 266.28125 C 103.76646 266.31546 103.89024 266.62417 104.34375 267.21875 C 109.29714 273.71298 125.70748 286.58216 141.5 296.375 C 146.44918 299.44396 150.6125 301.95922 150.75 301.96875 C 151.86944 302.04634 149.42444 300.09913 138.9375 292.53125 C 132.2999 287.74123 121.1959 279.2973 114.28125 273.78125 C 107.79983 268.61079 104.45062 266.17862 103.9375 266.28125 z M 352.53125 288.03125 C 351.93995 288.04215 350.88172 288.51276 349.375 289.5 C 346.84366 291.1586 341.81732 300.78063 340.53125 306.4375 C 339.94785 309.0037 340.07247 309.19539 341.4375 308.0625 C 342.29314 307.35239 343.45396 305.01883 344.03125 302.875 C 344.60852 300.73116 347.15418 296.63363 349.6875 293.78125 C 352.89683 290.16772 353.8321 288.00727 352.53125 288.03125 z M 379.9375 322.46875 C 379.17438 322.56268 377.85073 323.03023 375.90625 323.875 C 373.48375 324.92746 369.13687 326.11924 366.25 326.5 C 359.91075 327.33606 358.7821 328.59539 363.21875 329.875 C 370.49792 331.97445 375.4501 330.57664 379.34375 325.34375 C 380.91675 323.22973 381.20936 322.3122 379.9375 322.46875 z M 205.03125 336 C 204.50699 336 203.15391 338.1375 202 340.75 C 198.87514 347.82482 194.42488 352.01224 190.0625 351.96875 C 188.10789 351.94927 185.375 351.28602 184 350.5 C 180.97639 348.77155 180 348.67343 180 350.0625 C 180 350.64056 181.4625 351.72658 183.25 352.5 C 185.0375 353.27341 187.85 354.8176 189.5 355.9375 C 193.66016 358.76111 194.31701 358.58405 197 353.75 C 198.29736 351.4125 200.85859 347.24267 202.6875 344.5 C 205.94456 339.61568 206.92739 336 205.03125 336 z M 314.625 345.28125 C 314.29534 345.33061 313.68138 345.89015 312.5 347 C 311.125 348.29175 310 349.73337 310 350.1875 C 310 351.4223 312.44279 351.18223 313.8125 349.8125 C 314.4725 349.1525 315 347.71086 315 346.625 C 315 345.69203 314.95466 345.23189 314.625 345.28125 z M 100.5625 411 C 98.7466 411.0622 96.737154 411.59897 95.9375 412.5625 C 94.853371 413.86879 94.872661 414.30959 96.0625 415.0625 C 99.280302 417.09864 104 415.46815 104 412.3125 C 104 411.37637 102.3784 410.9378 100.5625 411 z M 338.125 420.6875 C 337.80576 420.73162 337.55568 420.88321 337.40625 421.125 C 336.99807 421.78545 337.51655 422.89144 338.5625 423.65625 C 340.50548 425.077 352.4542 435.14777 361.75 443.1875 C 364.7304 445.76517 369.05202 448.80311 371.34375 449.9375 C 376.29298 452.38735 381.97622 452.59801 386.09375 450.46875 C 390.34684 448.26939 388.84505 447.04877 382.65625 447.6875 C 375.11894 448.46542 370.63153 446.09968 357.375 434.34375 C 346.74527 424.91729 340.35966 420.37869 338.125 420.6875 z M 399.5 424 L 401.875 426 C 404.91979 428.58876 410.28832 428.75568 409.8125 426.25 C 409.55719 424.90551 408.3345 424.4476 404.5 424.25 L 399.5 424 z M 112.28125 427.375 C 111.80986 427.8464 113.93884 438.00318 115.1875 441.25 C 116.18685 443.84854 116.58782 444 122.5625 444 C 127.82239 444 129.35344 443.58434 131.6875 441.5625 C 133.82164 439.71384 134.22451 438.86438 133.34375 437.96875 C 132.46669 437.07687 131.36166 437.07556 128.75 437.9375 C 123.91025 439.53476 120.8572 438.06625 116.375 432.0625 C 114.31452 429.30257 112.46126 427.195 112.28125 427.375 z "
       style="fill:#000000" />
  </g>
</svg>
