<?xml version="1.0" encoding="UTF-8" standalone="no"?>
<!-- Created with Inkscape (http://www.inkscape.org/) -->

<svg
   xmlns:dc="http://purl.org/dc/elements/1.1/"
   xmlns:cc="http://creativecommons.org/ns#"
   xmlns:rdf="http://www.w3.org/1999/02/22-rdf-syntax-ns#"
   xmlns:svg="http://www.w3.org/2000/svg"
   xmlns="http://www.w3.org/2000/svg"
   xmlns:sodipodi="http://sodipodi.sourceforge.net/DTD/sodipodi-0.dtd"
   xmlns:inkscape="http://www.inkscape.org/namespaces/inkscape"
   width="64px"
   height="64px"
   id="svg5511"
   version="1.1"
   inkscape:version="0.48.3.1 r9886"
   sodipodi:docname="ettercap-fangs.svg">
  <defs
     id="defs5513">
    <filter
       inkscape:collect="always"
       id="filter3837">
      <feGaussianBlur
         inkscape:collect="always"
         stdDeviation="1.3483666"
         id="feGaussianBlur3839" />
    </filter>
  </defs>
  <sodipodi:namedview
     id="base"
     pagecolor="#ffffff"
     bordercolor="#666666"
     borderopacity="1.0"
     inkscape:pageopacity="0.0"
     inkscape:pageshadow="2"
     inkscape:zoom="11"
     inkscape:cx="18.882836"
     inkscape:cy="30.348709"
     inkscape:current-layer="layer1"
     showgrid="true"
     inkscape:document-units="px"
     inkscape:grid-bbox="true"
     inkscape:window-width="1920"
     inkscape:window-height="1141"
     inkscape:window-x="0"
     inkscape:window-y="27"
     inkscape:window-maximized="1" />
  <metadata
     id="metadata5516">
    <rdf:RDF>
      <cc:Work
         rdf:about="">
        <dc:format>image/svg+xml</dc:format>
        <dc:type
           rdf:resource="http://purl.org/dc/dcmitype/StillImage" />
        <dc:title />
      </cc:Work>
    </rdf:RDF>
  </metadata>
  <g
     id="layer1"
     inkscape:label="Layer 1"
     inkscape:groupmode="layer">
    <g
       id="g3845">
      <path
         transform="matrix(0.3229758,0.84778377,-0.89598966,0.55196863,50.380512,-11.645065)"
         d="m 62.545454,31.318182 a 31.227272,31.227272 0 1 1 -62.45454404,0 31.227272,31.227272 0 1 1 62.45454404,0 z"
         sodipodi:ry="31.227272"
         sodipodi:rx="31.227272"
         sodipodi:cy="31.318182"
         sodipodi:cx="31.318182"
         id="path3843"
         style="fill:#000051;fill-opacity:1;stroke:#0000fb;stroke-width:0;stroke-linecap:round;stroke-linejoin:round;stroke-miterlimit:0;stroke-opacity:1;stroke-dasharray:none"
         sodipodi:type="arc" />
      <path
         sodipodi:nodetypes="ccsssssscssscccsccssssscssssssssscccssscccccccsscc"
         id="path2209"
         d="m 44.978616,28.032421 c -25.606508,57.64835 -12.803252,28.824177 0,0 z m -3.028243,3.194922 c -0.764606,0.604271 -0.83563,0.910685 -0.646217,2.790465 0.101199,1.004391 0.213167,1.329206 0.459628,1.340303 0.420828,0.01895 0.706342,-0.198834 1.086027,-0.841593 0.244736,-0.414312 0.27946,-0.792483 0.172304,-1.85643 -0.18979,-1.883602 -0.306899,-2.037215 -1.071742,-1.432747 z m 1.884387,-1.489245 c -0.556453,0.461434 -0.531713,0.680646 -0.509841,3.108567 0.0085,0.937159 0.08546,1.273643 0.327679,1.411194 0.358623,0.203695 0.393944,0.18683 1.114764,-0.61379 l 0.521277,-0.578986 -0.208859,-2.07293 -0.208879,-2.072933 -0.756979,0.598248 c -0.104748,0.08282 -0.199671,0.154736 -0.279162,0.22063 z m 1.551541,-1.226191 0.210432,2.088401 c 0.198197,1.967145 0.232484,2.070354 0.607091,1.883468 0.659353,-0.328925 0.793161,-0.424298 1.060744,-0.804903 C 47.46038,31.40033 47.48885,30.950708 47.370033,29.79177 47.122264,27.374118 47.01871,27.221821 46.13792,27.917912 z m 2.920528,-2.30812 c -0.762769,0.60282 -0.835539,0.91157 -0.646208,2.790468 0.10119,1.004389 0.213168,1.329202 0.459638,1.340302 0.521285,0.02348 1.078835,-0.518673 1.219101,-1.188946 0.142558,-0.680858 0.02531,-2.234862 -0.2248,-2.978919 -0.129869,-0.386297 -0.280145,-0.379851 -0.807731,0.03709 z m 2.079223,-1.626522 c -0.229874,0.210305 -0.440028,0.513509 -0.569233,0.850715 -0.286288,0.747231 -0.08613,2.862226 0.363505,3.837985 0.173635,0.377187 0.576582,1.303214 0.891472,2.059565 l 0.567959,1.379954 0.115436,-1.385585 c 0.06312,-0.761163 0.0011,-2.651774 -0.139092,-4.199064 -0.204698,-2.258769 -0.310366,-2.82377 -0.536352,-2.849604 -0.212807,-0.02434 -0.4638,0.09573 -0.693685,0.306046 z m -10.464944,8.312266 c -0.218651,0.161551 -0.479028,0.433627 -0.648576,0.696284 l -0.410612,0.641836 0.388122,2.816453 c 0.213697,1.552119 0.528942,3.194504 0.698025,3.648772 l 0.309142,0.824587 0.169017,-1.486404 c 0.09474,-0.817319 0.253181,-1.904489 0.353456,-2.417127 0.246205,-1.258505 0.240988,-3.012712 -0.01457,-4.11376 -0.165574,-0.713416 -0.304305,-0.866388 -0.64683,-0.724707 -0.05983,0.02476 -0.124292,0.06022 -0.197172,0.114065 z"
         style="fill:#ffffff;fill-opacity:1"
         inkscape:connector-curvature="0" />
      <text
         sodipodi:linespacing="125%"
         style="font-size:102.36679076999999438px;font-style:italic;font-variant:normal;font-weight:bold;font-stretch:normal;text-align:start;line-height:125%;letter-spacing:0px;word-spacing:0px;writing-mode:lr-tb;text-anchor:start;fill:#ee0000;fill-opacity:1;stroke:#000000;stroke-width:0.2;stroke-miterlimit:0;stroke-opacity:1;stroke-dasharray:none;font-family:Gentium Book Basic;-inkscape-font-specification:Gentium Book Basic Bold Italic"
         xml:space="preserve"
         id="text2993-2"
         transform="matrix(0.85814504,0.25375727,-0.2639818,1.0872436,0,0)"
         y="42.293812"
         x="19.670443"><tspan
           style="fill:#ee0000;fill-opacity:1;stroke:#000000;stroke-width:0.2;stroke-miterlimit:0;stroke-opacity:1;stroke-dasharray:none"
           id="tspan2995-0"
           y="42.293812"
           x="19.670443">e</tspan></text>
    </g>
  </g>
</svg>
